<?xml version="1.0" encoding="utf-8"?>
<!-- Generator: Adobe Illustrator 26.5.0, SVG Export Plug-In . SVG Version: 6.00 Build 0)  -->
<svg version="1.1" id="Layer_2" xmlns="http://www.w3.org/2000/svg" xmlns:xlink="http://www.w3.org/1999/xlink" x="0px" y="0px"
	 viewBox="0 0 453 245.5" style="enable-background:new 0 0 453 245.5;" xml:space="preserve">
<style type="text/css">
	.st0{fill:#3C3D3E;}
	.st1{fill:#5D7B9A;}
</style>
<g>
	<path class="st0" d="M15.2,121.6c4.9,5.6,10.6,8.6,16.2,8.6c6.1,0,11.7-3.3,13.9-8.2c2-4.2,2.8-9.3,2.8-16.7c0-8-1.2-15-3.1-19
		C43,81.8,38.2,79,32.9,79c-6.6,0-12.6,3.2-17.6,9.3V121.6z M3.4,71.2l10.6-1.9c0,0,0.7,2.8,0.7,10.1c5.4-6.3,12.2-9.7,19.5-9.7
		c6.8,0,13.4,2.9,17.6,8.2c4.9,6.1,7.3,14.2,7.3,26c0,10.6-1.6,16.7-5.3,22.8c-4.8,7.7-11.8,12.1-20.4,12.1
		c-6.8,0-13.5-2.9-18.2-7.7v42.4l-10.3,2V85.4C4.9,75.3,3.4,71.2,3.4,71.2"/>
	<path class="st0" d="M75,72.1l10.3-2.8c0,0,2.5,5.2,2.1,10.7c4.8-6.8,11.8-11,18.6-11c1.7,0,3.6,0.7,3.6,0.7L105.4,81
		c-0.7-0.3-1.9-0.5-2.9-0.5c-4,0-8,1.7-11,4.8c-3.1,3-3.8,5-3.8,10.5v41.4H77.3V86.2C77.3,76.5,75,72.1,75,72.1"/>
</g>
<polygon class="st0" points="234.1,71.3 244.9,69.6 244.9,107.5 244.9,137.1 234.1,137.1 234.1,100.1 "/>
<polygon class="st0" points="329,71.3 339.8,69.6 339.8,87.3 339.8,137.1 329,137.1 329,99 "/>
<g>
	<path class="st1" d="M239.7,43.4c4.1,0,7.3,3.2,7.3,7.3c0,4.1-3.2,7.3-7.3,7.3c-4.1,0-7.3-3.2-7.3-7.2
		C232.4,46.7,235.6,43.4,239.7,43.4"/>
	<path class="st1" d="M334.6,43.4c4.1,0,7.3,3.2,7.3,7.3c0,4.1-3.2,7.3-7.3,7.3c-4,0-7.3-3.2-7.3-7.2
		C327.3,46.7,330.6,43.4,334.6,43.4"/>
	<path class="st1" d="M410.3,43.4c4.1,0,7.3,3.2,7.3,7.3c0,4.1-3.2,7.3-7.3,7.3c-4.1,0-7.3-3.2-7.3-7.2
		C403,46.7,406.3,43.4,410.3,43.4"/>
</g>
<polygon class="st0" points="404.7,71.3 415.5,69.6 415.5,105.7 415.5,137.1 404.7,137.1 404.7,99 "/>
<path class="st0" d="M143.7,77.6c-5.8,0-11.3,2.8-13.5,7.2c-2.1,4.1-3.2,9.4-3.2,17.2c0,9.3,1.6,17.5,4.1,21.6
	c2.4,4,7.7,6.6,13.4,6.6c6.9,0,12.1-3.6,14.3-9.9c1.4-4.1,2-7.8,2-14.4c0-9.3-0.9-15.5-3.1-19.9C155,80.2,149.1,77.6,143.7,77.6
	 M143.8,69.1c11,0,18.2,5,22.7,11.5c4.1,5.9,6.1,13.8,6.1,24.5c0,22-11.8,33.7-28.4,33.7c-18.2,0-28.5-13.4-28.5-35.1
	C115.7,82.2,126.5,69.1,143.8,69.1"/>
<path class="st0" d="M256.8,71.6l10.6-2.2l15.4,45.5c1.8,5.4,3.2,11.3,3.2,11.3h0.3c0,0,1.1-5.2,3.2-11.1L304.5,71h11l-24.8,66.7
	h-10.2L256.8,71.6z"/>
<path class="st0" d="M390.4,71.1l-3.2,7.8h-13.8v42.6c0,7.3,2,9.8,8.5,9.8c2.9,0,4.6-0.4,6.5-1.3l1.5,6.6c-3.3,1.7-7,2.7-11.7,2.7
	c-3.4,0-6.1-0.7-8.6-1.9c-4.6-2.2-6.4-6.5-6.4-13.1V78.9h-8.6v-7.8h9.1V51.6l9.8-2v21.4H390.4z"/>
<path class="st0" d="M219.6,71.1l-3.2,7.8h-13.8v42.6c0,7.3,2,9.8,8.5,9.8c2.9,0,4.6-0.4,6.5-1.3l1.5,6.6c-3.3,1.7-7,2.7-11.7,2.7
	c-3.4,0-6.1-0.7-8.6-1.9c-4.6-2.2-6.4-6.5-6.4-13.1V78.9h-8.6v-7.8h9.2V51.6l9.8-2v21.4H219.6z"/>
<g>
	<path class="st1" d="M58.7,187.7h7.5l-1.2,9.9c-0.7,0.5-1.3,0.9-2,1.2c-0.7,0.3-1.4,0.6-2.2,0.9c-0.8,0.2-1.6,0.4-2.4,0.5
		c-0.8,0.1-1.8,0.2-2.7,0.2c-1.6,0-3-0.3-4.2-0.8c-1.3-0.6-2.4-1.3-3.3-2.3c-0.9-1-1.6-2.2-2.1-3.6c-0.5-1.4-0.7-2.9-0.7-4.6
		c0-1.5,0.2-2.9,0.5-4.2c0.3-1.3,0.8-2.5,1.3-3.6c0.6-1.1,1.3-2.1,2.1-3c0.8-0.9,1.7-1.6,2.8-2.3c1-0.6,2.1-1.1,3.3-1.4
		c1.2-0.3,2.4-0.5,3.7-0.5c1,0,1.9,0.1,2.7,0.3c0.8,0.2,1.6,0.4,2.2,0.7c0.7,0.3,1.3,0.7,1.8,1.1c0.5,0.4,1,0.9,1.5,1.3l-1.2,1.5
		c-0.2,0.3-0.4,0.4-0.7,0.5c-0.3,0.1-0.6,0-0.8-0.2c-0.3-0.2-0.6-0.4-0.9-0.6s-0.7-0.5-1.1-0.7c-0.4-0.2-1-0.4-1.6-0.5
		s-1.3-0.2-2.2-0.2c-1.4,0-2.7,0.3-3.9,0.8c-1.2,0.5-2.2,1.3-3.1,2.3c-0.9,1-1.5,2.2-2,3.7c-0.5,1.4-0.7,3-0.7,4.8
		c0,1.3,0.2,2.5,0.5,3.5s0.8,1.9,1.4,2.7s1.4,1.3,2.3,1.7c0.9,0.4,1.9,0.6,3,0.6c0.6,0,1.1,0,1.6-0.1c0.5-0.1,1-0.2,1.4-0.3
		c0.5-0.1,0.9-0.3,1.3-0.4c0.4-0.2,0.8-0.4,1.2-0.6l0.7-5.6h-3.4c-0.2,0-0.4-0.1-0.5-0.2c-0.1-0.1-0.2-0.3-0.2-0.5L58.7,187.7z"/>
	<path class="st1" d="M69.4,200.1l3.2-26.4H76l-3.2,26.4H69.4z"/>
	<path class="st1" d="M84.5,200.3c-1,0-1.9-0.2-2.7-0.5c-0.8-0.3-1.6-0.8-2.2-1.5c-0.6-0.6-1.1-1.4-1.4-2.4c-0.3-0.9-0.5-2-0.5-3.2
		c0-1.5,0.2-3,0.7-4.3c0.5-1.4,1.1-2.5,2-3.5c0.8-1,1.8-1.8,3-2.4c1.1-0.6,2.4-0.9,3.7-0.9c1,0,1.9,0.2,2.7,0.5
		c0.8,0.3,1.6,0.8,2.2,1.5c0.6,0.6,1.1,1.4,1.4,2.4c0.3,0.9,0.5,2,0.5,3.2c0,1.5-0.2,3-0.7,4.3c-0.5,1.4-1.1,2.5-2,3.6
		c-0.8,1-1.8,1.8-3,2.4C87,200.1,85.8,200.3,84.5,200.3z M84.8,197.6c0.8,0,1.6-0.2,2.3-0.7c0.7-0.5,1.3-1.1,1.8-1.9
		c0.5-0.8,0.9-1.7,1.1-2.7s0.4-2.1,0.4-3.2c0-1.6-0.3-2.8-0.9-3.6c-0.6-0.8-1.5-1.2-2.7-1.2c-0.8,0-1.6,0.2-2.3,0.7
		c-0.7,0.5-1.3,1.1-1.7,1.8c-0.5,0.8-0.9,1.7-1.1,2.7c-0.3,1-0.4,2.1-0.4,3.2c0,1.6,0.3,2.8,0.9,3.6S83.6,197.6,84.8,197.6z"/>
	<path class="st1" d="M101.5,186.2c0.4-0.7,0.9-1.3,1.4-1.9c0.5-0.6,1.1-1,1.6-1.4c0.6-0.4,1.2-0.7,1.8-0.9c0.6-0.2,1.2-0.3,1.9-0.3
		c1.5,0,2.7,0.6,3.6,1.7c0.9,1.1,1.3,2.8,1.3,5c0,1-0.1,2-0.3,3c-0.2,1-0.5,1.9-0.9,2.8c-0.4,0.9-0.8,1.7-1.4,2.5
		c-0.5,0.8-1.1,1.4-1.8,2c-0.7,0.6-1.4,1-2.1,1.3c-0.8,0.3-1.6,0.5-2.4,0.5c-1,0-1.8-0.2-2.6-0.6c-0.8-0.4-1.4-1-1.9-1.7l-0.2,1
		c-0.1,0.3-0.2,0.6-0.4,0.8c-0.2,0.2-0.4,0.2-0.8,0.2h-1.9l3.2-26.4h3.4L101.5,186.2z M100.4,196c0.5,0.6,1,1,1.6,1.2
		c0.6,0.2,1.2,0.4,1.8,0.4c0.6,0,1.2-0.1,1.7-0.4s1-0.6,1.4-1c0.4-0.4,0.8-0.9,1.2-1.5c0.3-0.6,0.6-1.2,0.9-1.9s0.4-1.4,0.5-2.1
		c0.1-0.7,0.2-1.4,0.2-2.1c0-1.4-0.2-2.4-0.7-3.1c-0.5-0.7-1.2-1.1-2.1-1.1c-0.5,0-1.1,0.2-1.7,0.5c-0.6,0.4-1.1,0.8-1.6,1.5
		c-0.5,0.6-1,1.4-1.5,2.2c-0.5,0.9-0.8,1.8-1.2,2.8L100.4,196z"/>
	<path class="st1" d="M126.9,195.5c-0.4,0.7-0.9,1.4-1.4,2c-0.5,0.6-1,1.1-1.5,1.5c-0.5,0.4-1.1,0.7-1.7,1c-0.6,0.2-1.2,0.3-1.9,0.3
		c-0.7,0-1.4-0.1-2-0.4c-0.6-0.3-1.1-0.7-1.5-1.2c-0.4-0.5-0.8-1.2-1-2c-0.2-0.8-0.3-1.7-0.3-2.8c0-1.1,0.1-2.1,0.4-3.2
		c0.3-1,0.7-2,1.2-2.9c0.5-0.9,1.1-1.7,1.8-2.5c0.7-0.8,1.5-1.4,2.3-2c0.9-0.5,1.8-1,2.8-1.3c1-0.3,2-0.5,3.1-0.5
		c0.8,0,1.6,0.1,2.3,0.2c0.8,0.1,1.5,0.3,2.2,0.7l-2.2,17.6h-1.8c-0.5,0-0.8-0.1-0.9-0.3c-0.2-0.2-0.2-0.5-0.2-0.8L126.9,195.5z
		 M128.1,184.3c-0.5-0.1-0.9-0.1-1.4-0.1c-1.1,0-2.1,0.2-3,0.7s-1.7,1.2-2.4,2c-0.7,0.8-1.2,1.8-1.6,2.9c-0.4,1.1-0.6,2.3-0.6,3.5
		c0,1.4,0.2,2.4,0.7,3.1c0.5,0.7,1.1,1,2,1c0.6,0,1.1-0.2,1.7-0.5c0.5-0.4,1.1-0.9,1.5-1.5c0.5-0.6,0.9-1.4,1.3-2.3
		c0.4-0.9,0.8-1.8,1.1-2.8L128.1,184.3z"/>
	<path class="st1" d="M134.5,200.1l3.2-26.4h3.4l-3.2,26.4H134.5z"/>
	<path class="st1" d="M163.1,174.4c1.4,0,2.5,0.1,3.5,0.4c1,0.3,1.8,0.7,2.4,1.2c0.6,0.5,1.1,1.1,1.4,1.8c0.3,0.7,0.4,1.5,0.4,2.4
		c0,0.8-0.1,1.5-0.3,2.2c-0.2,0.7-0.5,1.3-1,1.9c-0.4,0.6-1,1.1-1.6,1.5c-0.7,0.4-1.4,0.8-2.3,1.1c1.5,0.3,2.7,0.9,3.4,1.8
		s1.1,1.9,1.1,3.3c0,1.2-0.2,2.3-0.6,3.3c-0.4,1-1,1.9-1.9,2.6c-0.8,0.7-1.8,1.3-3,1.7s-2.5,0.6-3.9,0.6h-8.6l3.1-25.7H163.1z
		 M161.1,197.2c0.9,0,1.7-0.1,2.4-0.4c0.7-0.2,1.2-0.6,1.7-1c0.5-0.4,0.8-1,1-1.6c0.2-0.6,0.3-1.3,0.3-2.1c0-0.5-0.1-1-0.3-1.5
		c-0.2-0.4-0.4-0.8-0.8-1.1c-0.4-0.3-0.8-0.5-1.4-0.7c-0.6-0.2-1.2-0.2-2-0.2h-4.8l-1.1,8.7H161.1z M158.7,177.3l-1.1,8.6h4
		c0.9,0,1.7-0.1,2.4-0.4c0.7-0.2,1.3-0.6,1.7-1c0.5-0.4,0.8-1,1.1-1.6c0.2-0.6,0.4-1.3,0.4-2.1c0-1.2-0.4-2.1-1.1-2.7
		c-0.7-0.6-1.8-0.9-3.3-0.9H158.7z"/>
	<path class="st1" d="M190.1,181.9l-2.2,18.2h-1.7c-0.8,0-1.3-0.4-1.3-1.3l0.2-3c-0.9,1.5-2,2.6-3.2,3.3c-1.2,0.8-2.4,1.1-3.6,1.1
		c-0.8,0-1.4-0.2-2-0.5c-0.6-0.3-1.1-0.7-1.4-1.3c-0.4-0.6-0.6-1.3-0.8-2.2s-0.1-1.8,0-2.9l1.4-11.6h3.5l-1.4,11.6
		c-0.2,1.4-0.1,2.4,0.2,3s0.9,1,1.8,1c0.5,0,1.1-0.1,1.6-0.4c0.6-0.3,1.1-0.7,1.6-1.2c0.5-0.5,1-1.2,1.5-1.9
		c0.4-0.8,0.8-1.6,1.2-2.5l1.1-9.4H190.1z"/>
	<path class="st1" d="M204.4,185c-0.1,0.2-0.2,0.3-0.3,0.3c-0.1,0.1-0.2,0.1-0.4,0.1c-0.2,0-0.4-0.1-0.6-0.2
		c-0.2-0.1-0.4-0.3-0.7-0.4c-0.3-0.2-0.6-0.3-1-0.4c-0.4-0.1-0.9-0.2-1.4-0.2c-0.5,0-1,0.1-1.4,0.2c-0.4,0.1-0.8,0.3-1.1,0.6
		c-0.3,0.2-0.5,0.5-0.7,0.9c-0.2,0.3-0.2,0.7-0.2,1.1c0,0.4,0.1,0.7,0.3,1c0.2,0.3,0.5,0.5,0.8,0.7c0.3,0.2,0.7,0.4,1.2,0.6
		c0.4,0.2,0.9,0.3,1.4,0.5c0.5,0.2,0.9,0.4,1.4,0.6c0.4,0.2,0.8,0.5,1.2,0.8c0.3,0.3,0.6,0.7,0.8,1.2c0.2,0.5,0.3,1,0.3,1.7
		c0,0.8-0.2,1.7-0.5,2.4c-0.3,0.8-0.8,1.4-1.4,2c-0.6,0.6-1.4,1.1-2.3,1.4c-0.9,0.3-1.9,0.5-3,0.5c-1.2,0-2.2-0.2-3.1-0.6
		s-1.6-0.9-2.2-1.6l0.9-1.3c0.2-0.3,0.5-0.5,0.9-0.5c0.2,0,0.4,0.1,0.6,0.3c0.2,0.2,0.4,0.3,0.7,0.5c0.3,0.2,0.6,0.4,1.1,0.5
		c0.4,0.2,1,0.3,1.6,0.3c0.6,0,1.1-0.1,1.5-0.3c0.4-0.2,0.8-0.4,1.1-0.7c0.3-0.3,0.5-0.6,0.7-1c0.2-0.4,0.2-0.8,0.2-1.2
		c0-0.4-0.1-0.8-0.3-1.1c-0.2-0.3-0.5-0.6-0.8-0.8c-0.3-0.2-0.7-0.4-1.2-0.6c-0.4-0.2-0.9-0.3-1.4-0.5c-0.5-0.2-0.9-0.4-1.4-0.6
		c-0.4-0.2-0.8-0.5-1.2-0.8c-0.3-0.3-0.6-0.7-0.8-1.2c-0.2-0.5-0.3-1-0.3-1.7c0-0.8,0.2-1.5,0.5-2.2c0.3-0.7,0.8-1.4,1.3-1.9
		c0.6-0.6,1.3-1,2.1-1.3s1.8-0.5,2.8-0.5c1.1,0,2.1,0.2,2.9,0.5c0.8,0.4,1.6,0.9,2.2,1.5L204.4,185z"/>
	<path class="st1" d="M212.6,181.9l-2.2,18.2H207l2.2-18.2H212.6z M213.8,176.3c0,0.3-0.1,0.6-0.2,0.9c-0.1,0.3-0.3,0.5-0.5,0.8
		c-0.2,0.2-0.5,0.4-0.8,0.5c-0.3,0.1-0.6,0.2-0.9,0.2c-0.3,0-0.6-0.1-0.9-0.2c-0.3-0.1-0.5-0.3-0.7-0.5c-0.2-0.2-0.4-0.5-0.5-0.8
		s-0.2-0.6-0.2-0.9c0-0.3,0.1-0.6,0.2-0.9c0.1-0.3,0.3-0.5,0.5-0.8s0.5-0.4,0.7-0.5c0.3-0.1,0.6-0.2,0.9-0.2s0.6,0.1,0.9,0.2
		c0.3,0.1,0.5,0.3,0.8,0.5c0.2,0.2,0.4,0.5,0.5,0.8C213.7,175.7,213.8,176,213.8,176.3z"/>
	<path class="st1" d="M220.3,186.3c1-1.5,2-2.7,3.2-3.5c1.2-0.8,2.4-1.2,3.7-1.2c0.8,0,1.4,0.2,2,0.5c0.6,0.3,1.1,0.7,1.4,1.3
		c0.4,0.6,0.6,1.3,0.8,2.2c0.1,0.9,0.1,1.8,0,2.9l-1.4,11.6h-3.5l1.4-11.6c0.2-1.4,0.1-2.4-0.2-3c-0.3-0.6-0.9-1-1.8-1
		c-0.5,0-1.1,0.2-1.7,0.5c-0.6,0.3-1.1,0.7-1.7,1.3c-0.5,0.6-1,1.2-1.5,2c-0.5,0.8-0.8,1.7-1.2,2.6l-1,9.2h-3.5l2.2-18.2h1.8
		c0.4,0,0.7,0.1,0.9,0.3s0.3,0.5,0.3,0.9L220.3,186.3z"/>
	<path class="st1" d="M249.2,196.7c-0.6,0.6-1.2,1.2-1.8,1.6c-0.6,0.5-1.2,0.8-1.8,1.1c-0.6,0.3-1.3,0.5-1.9,0.7
		c-0.7,0.1-1.4,0.2-2.2,0.2c-1,0-2-0.2-2.8-0.5c-0.8-0.4-1.6-0.9-2.1-1.5s-1-1.4-1.4-2.3s-0.5-1.9-0.5-3.1c0-0.9,0.1-1.9,0.3-2.8
		c0.2-0.9,0.5-1.8,0.9-2.6c0.4-0.8,0.8-1.6,1.4-2.3c0.5-0.7,1.2-1.3,1.9-1.9c0.7-0.5,1.5-0.9,2.3-1.2c0.8-0.3,1.8-0.4,2.7-0.4
		c0.9,0,1.7,0.1,2.4,0.4c0.7,0.3,1.2,0.6,1.7,1c0.4,0.4,0.8,0.9,1,1.4c0.2,0.5,0.3,1,0.3,1.5c0,0.8-0.2,1.5-0.5,2.2
		c-0.3,0.7-0.9,1.3-1.8,1.8c-0.9,0.5-2,1-3.5,1.4c-1.5,0.4-3.4,0.7-5.7,0.9c0,0.1,0,0.2,0,0.3c0,0.1,0,0.2,0,0.3
		c0,1.6,0.3,2.7,1,3.5c0.7,0.8,1.7,1.2,3,1.2c0.6,0,1.1-0.1,1.5-0.2c0.4-0.1,0.8-0.3,1.2-0.4c0.3-0.2,0.6-0.3,0.9-0.5
		c0.3-0.2,0.5-0.4,0.7-0.5c0.2-0.2,0.4-0.3,0.6-0.4c0.2-0.1,0.4-0.2,0.6-0.2c0.1,0,0.2,0,0.3,0.1c0.1,0.1,0.2,0.1,0.3,0.2
		L249.2,196.7z M244,184.2c-0.7,0-1.4,0.1-2,0.4c-0.6,0.3-1.1,0.7-1.6,1.2c-0.5,0.5-0.9,1.1-1.2,1.8c-0.3,0.7-0.6,1.5-0.8,2.3
		c1.8-0.2,3.2-0.5,4.2-0.8c1.1-0.3,1.9-0.6,2.4-0.9c0.6-0.3,1-0.7,1.1-1c0.2-0.4,0.3-0.8,0.3-1.2c0-0.2,0-0.4-0.1-0.6
		c-0.1-0.2-0.2-0.4-0.4-0.6c-0.2-0.2-0.5-0.3-0.8-0.5C244.9,184.2,244.5,184.2,244,184.2z"/>
	<path class="st1" d="M264.1,185c-0.1,0.2-0.2,0.3-0.3,0.3c-0.1,0.1-0.2,0.1-0.4,0.1c-0.2,0-0.4-0.1-0.6-0.2
		c-0.2-0.1-0.4-0.3-0.7-0.4c-0.3-0.2-0.6-0.3-1-0.4c-0.4-0.1-0.9-0.2-1.4-0.2c-0.5,0-1,0.1-1.4,0.2c-0.4,0.1-0.8,0.3-1.1,0.6
		c-0.3,0.2-0.5,0.5-0.7,0.9c-0.2,0.3-0.2,0.7-0.2,1.1c0,0.4,0.1,0.7,0.3,1c0.2,0.3,0.5,0.5,0.8,0.7c0.3,0.2,0.7,0.4,1.2,0.6
		c0.4,0.2,0.9,0.3,1.4,0.5c0.5,0.2,0.9,0.4,1.4,0.6c0.4,0.2,0.8,0.5,1.2,0.8c0.3,0.3,0.6,0.7,0.8,1.2c0.2,0.5,0.3,1,0.3,1.7
		c0,0.8-0.2,1.7-0.5,2.4c-0.3,0.8-0.8,1.4-1.4,2c-0.6,0.6-1.4,1.1-2.3,1.4c-0.9,0.3-1.9,0.5-3,0.5c-1.2,0-2.2-0.2-3.1-0.6
		c-0.9-0.4-1.6-0.9-2.2-1.6l0.9-1.3c0.2-0.3,0.5-0.5,0.9-0.5c0.2,0,0.4,0.1,0.6,0.3c0.2,0.2,0.4,0.3,0.7,0.5
		c0.3,0.2,0.6,0.4,1.1,0.5c0.4,0.2,1,0.3,1.6,0.3c0.6,0,1.1-0.1,1.5-0.3c0.4-0.2,0.8-0.4,1.1-0.7c0.3-0.3,0.5-0.6,0.7-1
		c0.2-0.4,0.2-0.8,0.2-1.2c0-0.4-0.1-0.8-0.3-1.1c-0.2-0.3-0.5-0.6-0.8-0.8c-0.3-0.2-0.7-0.4-1.2-0.6c-0.4-0.2-0.9-0.3-1.4-0.5
		c-0.5-0.2-0.9-0.4-1.4-0.6s-0.8-0.5-1.2-0.8s-0.6-0.7-0.8-1.2c-0.2-0.5-0.3-1-0.3-1.7c0-0.8,0.2-1.5,0.5-2.2
		c0.3-0.7,0.8-1.4,1.3-1.9c0.6-0.6,1.3-1,2.1-1.3c0.8-0.3,1.8-0.5,2.8-0.5c1.1,0,2.1,0.2,2.9,0.5c0.8,0.4,1.6,0.9,2.2,1.5L264.1,185
		z"/>
	<path class="st1" d="M278.4,185c-0.1,0.2-0.2,0.3-0.3,0.3c-0.1,0.1-0.2,0.1-0.4,0.1c-0.2,0-0.4-0.1-0.6-0.2
		c-0.2-0.1-0.4-0.3-0.7-0.4c-0.3-0.2-0.6-0.3-1-0.4c-0.4-0.1-0.9-0.2-1.4-0.2c-0.5,0-1,0.1-1.4,0.2c-0.4,0.1-0.8,0.3-1.1,0.6
		c-0.3,0.2-0.5,0.5-0.7,0.9c-0.2,0.3-0.2,0.7-0.2,1.1c0,0.4,0.1,0.7,0.3,1c0.2,0.3,0.5,0.5,0.8,0.7c0.3,0.2,0.7,0.4,1.2,0.6
		c0.4,0.2,0.9,0.3,1.4,0.5c0.5,0.2,0.9,0.4,1.4,0.6c0.4,0.2,0.8,0.5,1.2,0.8c0.3,0.3,0.6,0.7,0.8,1.2c0.2,0.5,0.3,1,0.3,1.7
		c0,0.8-0.2,1.7-0.5,2.4c-0.3,0.8-0.8,1.4-1.4,2c-0.6,0.6-1.4,1.1-2.3,1.4c-0.9,0.3-1.9,0.5-3,0.5c-1.2,0-2.2-0.2-3.1-0.6
		s-1.6-0.9-2.2-1.6l0.9-1.3c0.2-0.3,0.5-0.5,0.9-0.5c0.2,0,0.4,0.1,0.6,0.3c0.2,0.2,0.4,0.3,0.7,0.5c0.3,0.2,0.6,0.4,1.1,0.5
		c0.4,0.2,1,0.3,1.6,0.3c0.6,0,1.1-0.1,1.5-0.3c0.4-0.2,0.8-0.4,1.1-0.7c0.3-0.3,0.5-0.6,0.7-1c0.2-0.4,0.2-0.8,0.2-1.2
		c0-0.4-0.1-0.8-0.3-1.1c-0.2-0.3-0.5-0.6-0.8-0.8c-0.3-0.2-0.7-0.4-1.2-0.6c-0.4-0.2-0.9-0.3-1.4-0.5c-0.5-0.2-0.9-0.4-1.4-0.6
		s-0.8-0.5-1.2-0.8s-0.6-0.7-0.8-1.2c-0.2-0.5-0.3-1-0.3-1.7c0-0.8,0.2-1.5,0.5-2.2c0.3-0.7,0.8-1.4,1.3-1.9c0.6-0.6,1.3-1,2.1-1.3
		c0.8-0.3,1.8-0.5,2.8-0.5c1.1,0,2.1,0.2,2.9,0.5c0.8,0.4,1.6,0.9,2.2,1.5L278.4,185z"/>
	<path class="st1" d="M301.1,197.2c0.8,0,1.5-0.1,2-0.2c0.6-0.1,1.1-0.3,1.6-0.5c0.4-0.2,0.8-0.4,1.2-0.6c0.3-0.2,0.6-0.4,0.8-0.6
		c0.2-0.2,0.4-0.3,0.6-0.5c0.2-0.1,0.3-0.2,0.5-0.2c0.1,0,0.2,0,0.3,0.1c0.1,0,0.1,0.1,0.2,0.2l1.3,1.6c-1.1,1.2-2.4,2.2-3.9,2.9
		c-1.5,0.7-3.2,1-5.1,1c-1.6,0-2.9-0.3-4.2-0.8c-1.2-0.6-2.3-1.3-3.1-2.3c-0.8-1-1.5-2.2-1.9-3.5c-0.4-1.4-0.7-2.9-0.7-4.5
		c0-1.5,0.2-2.9,0.5-4.2c0.3-1.3,0.8-2.5,1.4-3.7c0.6-1.1,1.3-2.1,2.1-3c0.8-0.9,1.7-1.7,2.7-2.3c1-0.6,2.1-1.1,3.2-1.4
		c1.2-0.3,2.4-0.5,3.6-0.5c0.9,0,1.8,0.1,2.5,0.2c0.8,0.2,1.4,0.4,2,0.7c0.6,0.3,1.2,0.7,1.7,1.1c0.5,0.4,1,0.9,1.4,1.4l-1.3,1.5
		c-0.1,0.1-0.2,0.2-0.3,0.3c-0.1,0.1-0.3,0.1-0.5,0.1c-0.2,0-0.5-0.1-0.7-0.3s-0.6-0.5-1-0.8s-0.9-0.5-1.5-0.8
		c-0.6-0.2-1.5-0.3-2.5-0.3c-1.3,0-2.6,0.3-3.8,0.8c-1.2,0.5-2.2,1.3-3,2.3c-0.9,1-1.5,2.2-2,3.7c-0.5,1.4-0.7,3-0.7,4.8
		c0,1.3,0.2,2.4,0.5,3.5s0.8,1.9,1.4,2.6c0.6,0.7,1.3,1.3,2.1,1.6C299.2,197,300.1,197.2,301.1,197.2z"/>
	<path class="st1" d="M319,200.3c-1,0-1.9-0.2-2.7-0.5c-0.8-0.3-1.6-0.8-2.2-1.5s-1.1-1.4-1.4-2.4c-0.3-0.9-0.5-2-0.5-3.2
		c0-1.5,0.2-3,0.7-4.3s1.1-2.5,2-3.5c0.8-1,1.8-1.8,3-2.4c1.1-0.6,2.4-0.9,3.7-0.9c1,0,1.9,0.2,2.7,0.5c0.8,0.3,1.6,0.8,2.2,1.5
		s1.1,1.4,1.4,2.4c0.3,0.9,0.5,2,0.5,3.2c0,1.5-0.2,3-0.7,4.3s-1.1,2.5-2,3.6c-0.8,1-1.8,1.8-3,2.4
		C321.5,200.1,320.3,200.3,319,200.3z M319.3,197.6c0.8,0,1.6-0.2,2.3-0.7c0.7-0.5,1.3-1.1,1.8-1.9c0.5-0.8,0.9-1.7,1.1-2.7
		s0.4-2.1,0.4-3.2c0-1.6-0.3-2.8-0.9-3.6c-0.6-0.8-1.5-1.2-2.7-1.2c-0.8,0-1.6,0.2-2.3,0.7c-0.7,0.5-1.3,1.1-1.7,1.8
		c-0.5,0.8-0.9,1.7-1.1,2.7c-0.3,1-0.4,2.1-0.4,3.2c0,1.6,0.3,2.8,0.9,3.6C317.2,197.2,318.1,197.6,319.3,197.6z"/>
	<path class="st1" d="M335.9,186.3c1-1.5,2-2.7,3.2-3.5c1.2-0.8,2.4-1.2,3.7-1.2c0.8,0,1.4,0.2,2,0.5c0.6,0.3,1.1,0.7,1.4,1.3
		c0.4,0.6,0.6,1.3,0.8,2.2c0.1,0.9,0.1,1.8,0,2.9l-1.4,11.6h-3.5l1.4-11.6c0.2-1.4,0.1-2.4-0.2-3c-0.3-0.6-0.9-1-1.8-1
		c-0.5,0-1.1,0.2-1.7,0.5c-0.6,0.3-1.1,0.7-1.7,1.3c-0.5,0.6-1,1.2-1.5,2c-0.5,0.8-0.8,1.7-1.2,2.6l-1,9.2H331l2.2-18.2h1.8
		c0.4,0,0.7,0.1,0.9,0.3s0.3,0.5,0.3,0.9L335.9,186.3z"/>
	<path class="st1" d="M361.9,185c-0.1,0.2-0.2,0.3-0.3,0.3c-0.1,0.1-0.2,0.1-0.4,0.1c-0.2,0-0.4-0.1-0.6-0.2
		c-0.2-0.1-0.4-0.3-0.7-0.4c-0.3-0.2-0.6-0.3-1-0.4s-0.9-0.2-1.4-0.2c-0.5,0-1,0.1-1.4,0.2c-0.4,0.1-0.8,0.3-1.1,0.6
		c-0.3,0.2-0.5,0.5-0.7,0.9c-0.2,0.3-0.2,0.7-0.2,1.1c0,0.4,0.1,0.7,0.3,1c0.2,0.3,0.5,0.5,0.8,0.7c0.3,0.2,0.7,0.4,1.2,0.6
		c0.4,0.2,0.9,0.3,1.4,0.5c0.5,0.2,0.9,0.4,1.4,0.6c0.4,0.2,0.8,0.5,1.2,0.8c0.3,0.3,0.6,0.7,0.8,1.2c0.2,0.5,0.3,1,0.3,1.7
		c0,0.8-0.2,1.7-0.5,2.4c-0.3,0.8-0.8,1.4-1.4,2c-0.6,0.6-1.4,1.1-2.3,1.4c-0.9,0.3-1.9,0.5-3,0.5c-1.2,0-2.2-0.2-3.1-0.6
		c-0.9-0.4-1.6-0.9-2.2-1.6l0.9-1.3c0.2-0.3,0.5-0.5,0.9-0.5c0.2,0,0.4,0.1,0.6,0.3c0.2,0.2,0.4,0.3,0.7,0.5
		c0.3,0.2,0.6,0.4,1.1,0.5c0.4,0.2,1,0.3,1.6,0.3c0.6,0,1.1-0.1,1.5-0.3c0.4-0.2,0.8-0.4,1.1-0.7c0.3-0.3,0.5-0.6,0.7-1
		c0.2-0.4,0.2-0.8,0.2-1.2c0-0.4-0.1-0.8-0.3-1.1c-0.2-0.3-0.5-0.6-0.8-0.8c-0.3-0.2-0.7-0.4-1.2-0.6c-0.4-0.2-0.9-0.3-1.4-0.5
		c-0.5-0.2-0.9-0.4-1.4-0.6c-0.4-0.2-0.8-0.5-1.2-0.8c-0.3-0.3-0.6-0.7-0.8-1.2c-0.2-0.5-0.3-1-0.3-1.7c0-0.8,0.2-1.5,0.5-2.2
		c0.3-0.7,0.8-1.4,1.3-1.9c0.6-0.6,1.3-1,2.1-1.3c0.8-0.3,1.8-0.5,2.8-0.5c1.1,0,2.1,0.2,2.9,0.5c0.8,0.4,1.6,0.9,2.2,1.5L361.9,185
		z"/>
	<path class="st1" d="M381.1,181.9l-2.2,18.2h-1.7c-0.8,0-1.3-0.4-1.3-1.3l0.2-3c-0.9,1.5-2,2.6-3.2,3.3c-1.2,0.8-2.4,1.1-3.6,1.1
		c-0.8,0-1.4-0.2-2-0.5c-0.6-0.3-1.1-0.7-1.4-1.3c-0.4-0.6-0.6-1.3-0.8-2.2s-0.1-1.8,0-2.9l1.4-11.6h3.5l-1.4,11.6
		c-0.2,1.4-0.1,2.4,0.2,3c0.3,0.6,0.9,1,1.8,1c0.5,0,1.1-0.1,1.6-0.4s1.1-0.7,1.6-1.2c0.5-0.5,1-1.2,1.5-1.9
		c0.4-0.8,0.8-1.6,1.2-2.5l1.1-9.4H381.1z"/>
	<path class="st1" d="M383.8,200.1l3.2-26.4h3.4l-3.2,26.4H383.8z"/>
	<path class="st1" d="M410,184.7L410,184.7l-1.9,15.4h-3.4l1.9-15.4h-8.3l-1.1,8.7c-0.1,0.5-0.1,0.9-0.1,1.2c0,0.3-0.1,0.5-0.1,0.7
		c0,0.2,0,0.3,0,0.4c0,0.1,0,0.1,0,0.2c0,0.6,0.1,1,0.4,1.3c0.3,0.3,0.6,0.4,1.1,0.4c0.3,0,0.6,0,0.8-0.1c0.2-0.1,0.4-0.2,0.6-0.3
		c0.2-0.1,0.3-0.2,0.4-0.3s0.2-0.1,0.3-0.1c0.1,0,0.2,0,0.3,0.1c0.1,0.1,0.1,0.1,0.2,0.3l0.8,1.7c-0.6,0.5-1.3,0.9-2,1.2
		c-0.8,0.3-1.5,0.4-2.3,0.4c-1.2,0-2.1-0.3-2.8-1c-0.7-0.6-1-1.6-1.1-2.8c0-0.1,0-0.2,0-0.3c0-0.1,0-0.3,0-0.5c0-0.2,0-0.5,0.1-0.9
		c0-0.4,0.1-0.8,0.2-1.4l1.1-8.9H393c-0.2,0-0.3-0.1-0.5-0.2c-0.1-0.1-0.2-0.3-0.1-0.5l0.2-1.3l2.7-0.4l1.4-5.5
		c0.1-0.2,0.2-0.4,0.3-0.5c0.1-0.1,0.3-0.2,0.5-0.2h1.8l-0.8,6.1h11.6L410,184.7z M411.8,176.3c0,0.3-0.1,0.6-0.2,0.9
		s-0.3,0.5-0.5,0.8c-0.2,0.2-0.5,0.4-0.8,0.5c-0.3,0.1-0.6,0.2-0.9,0.2s-0.6-0.1-0.9-0.2c-0.3-0.1-0.5-0.3-0.7-0.5
		c-0.2-0.2-0.4-0.5-0.5-0.8s-0.2-0.6-0.2-0.9c0-0.3,0.1-0.6,0.2-0.9c0.1-0.3,0.3-0.5,0.5-0.8s0.5-0.4,0.7-0.5
		c0.3-0.1,0.6-0.2,0.9-0.2c0.3,0,0.6,0.1,0.9,0.2c0.3,0.1,0.5,0.3,0.8,0.5c0.2,0.2,0.4,0.5,0.5,0.8
		C411.7,175.7,411.8,176,411.8,176.3z"/>
	<path class="st1" d="M418,186.3c1-1.5,2-2.7,3.2-3.5c1.2-0.8,2.4-1.2,3.7-1.2c0.8,0,1.4,0.2,2,0.5c0.6,0.3,1.1,0.7,1.4,1.3
		c0.4,0.6,0.6,1.3,0.8,2.2c0.1,0.9,0.1,1.8,0,2.9l-1.4,11.6h-3.5l1.4-11.6c0.2-1.4,0.1-2.4-0.2-3c-0.3-0.6-0.9-1-1.8-1
		c-0.5,0-1.1,0.2-1.7,0.5c-0.6,0.3-1.1,0.7-1.7,1.3c-0.5,0.6-1,1.2-1.5,2c-0.5,0.8-0.8,1.7-1.2,2.6l-1,9.2h-3.5l2.2-18.2h1.8
		c0.4,0,0.7,0.1,0.9,0.3s0.3,0.5,0.3,0.9L418,186.3z"/>
	<path class="st1" d="M449.1,182.6l-0.2,1.2c-0.1,0.5-0.3,0.8-0.8,0.9l-2.1,0.4c0.1,0.3,0.2,0.6,0.2,0.9c0,0.3,0.1,0.7,0.1,1
		c0,0.6-0.1,1.1-0.2,1.6c-0.1,0.5-0.3,0.9-0.5,1.3c-0.2,0.4-0.4,0.8-0.6,1.1c-0.2,0.4-0.4,0.7-0.6,1.1c-0.2,0.4-0.4,0.7-0.5,1.1
		c-0.1,0.4-0.2,0.8-0.2,1.2c0,0.5,0.1,0.9,0.3,1.4c0.2,0.4,0.5,0.8,0.8,1.3c0.3,0.4,0.5,0.9,0.8,1.4c0.2,0.5,0.3,1.1,0.3,1.8
		c0,0.9-0.2,1.7-0.6,2.5c-0.4,0.8-1,1.5-1.7,2c-0.7,0.6-1.6,1.1-2.7,1.4c-1.1,0.3-2.2,0.5-3.6,0.5c-1.1,0-2-0.1-2.9-0.3
		c-0.9-0.2-1.6-0.5-2.2-0.9c-0.6-0.4-1.1-0.9-1.4-1.4c-0.3-0.6-0.5-1.2-0.5-1.8c0-0.8,0.2-1.5,0.5-2.1c0.3-0.6,0.8-1.1,1.3-1.5
		c0.6-0.4,1.2-0.8,1.9-1c0.7-0.3,1.5-0.5,2.3-0.6c0.8-0.1,1.7-0.2,2.5-0.2c0.9,0,1.7,0.1,2.5,0.2c-0.1-0.2-0.2-0.4-0.2-0.6
		c-0.1-0.2-0.1-0.5-0.1-0.8c0-0.4,0.1-0.7,0.2-1.1c0.1-0.4,0.3-0.8,0.5-1.3c-0.5,0.3-1,0.5-1.5,0.7c-0.6,0.2-1.2,0.3-1.9,0.3
		c-0.7,0-1.3-0.1-2-0.3c-0.6-0.2-1.1-0.6-1.6-1c-0.5-0.4-0.8-1-1.1-1.7c-0.3-0.7-0.4-1.4-0.4-2.3c0-0.9,0.2-1.7,0.5-2.6
		c0.3-0.8,0.8-1.6,1.4-2.2c0.6-0.7,1.4-1.2,2.3-1.6c0.9-0.4,2-0.6,3.2-0.6c0.6,0,1.3,0.1,1.8,0.2c0.6,0.1,1.1,0.4,1.6,0.7H449.1z
		 M442.7,200.4c0-0.3,0-0.5-0.1-0.8c0-0.2-0.1-0.5-0.2-0.7c-1.5-0.3-2.9-0.4-4-0.3c-1.1,0.1-2,0.2-2.7,0.5c-0.7,0.3-1.3,0.6-1.6,1
		c-0.3,0.4-0.5,0.9-0.5,1.4c0,0.8,0.3,1.4,1,1.9c0.7,0.4,1.7,0.6,3,0.6c0.8,0,1.4-0.1,2.1-0.3c0.6-0.2,1.2-0.5,1.6-0.8
		c0.4-0.3,0.8-0.7,1-1.2C442.6,201.4,442.7,200.9,442.7,200.4z M439.3,191.8c0.6,0,1.1-0.1,1.6-0.4c0.5-0.3,0.9-0.6,1.2-1.1
		c0.3-0.4,0.6-0.9,0.7-1.5c0.2-0.6,0.3-1.1,0.3-1.7c0-1-0.3-1.8-0.8-2.3s-1.2-0.8-2.1-0.8c-0.6,0-1.1,0.1-1.6,0.4
		c-0.5,0.3-0.9,0.6-1.2,1c-0.3,0.4-0.6,0.9-0.7,1.5c-0.2,0.6-0.3,1.1-0.3,1.7c0,1,0.2,1.8,0.7,2.4
		C437.7,191.5,438.4,191.8,439.3,191.8z"/>
</g>
<path class="st0" d="M442.4,76.1c0,0.6-0.2,1.1-0.5,1.3c-0.4,0.3-0.8,0.5-1.7,0.5h-1v-3.5h1c0.5,0,0.9,0.1,1.2,0.2
	C442,74.9,442.4,75.4,442.4,76.1 M444.4,83.2c-0.2-0.3-1-1.6-1.4-2.3c-0.3-0.5-0.6-1-0.9-1.2c-0.1-0.2-0.4-0.5-0.9-0.9
	c1.7,0,2.7-1.2,2.7-2.7c0-1-0.4-1.6-0.9-2c-0.5-0.5-1.2-0.7-2.4-0.7h-2.8v9.9h1.4v-4.4c0.4,0,0.6,0.2,0.9,0.5c0.7,0.8,1,1.2,1.7,2.5
	c0.4,0.7,0.5,0.9,0.8,1.5H444.4z M431.7,78.3c0,5.1,4.1,8.9,8.9,8.9c4.9,0,8.9-3.8,8.9-8.9c0-5.1-4.1-8.9-8.9-8.9
	C435.8,69.4,431.7,73.3,431.7,78.3 M433.3,78.3c0-4.3,3.2-7.6,7.3-7.6c4.1,0,7.3,3.3,7.3,7.6c0,4.3-3.3,7.6-7.3,7.6
	C436.5,86,433.3,82.7,433.3,78.3"/>
</svg>
